<?xml version="1.0" encoding="utf-8"?>
<!-- Generator: Adobe Illustrator 23.1.0, SVG Export Plug-In . SVG Version: 6.00 Build 0)  -->
<svg version="1.1" id="Layer_1" xmlns="http://www.w3.org/2000/svg" xmlns:xlink="http://www.w3.org/1999/xlink" x="0px" y="0px"
	 viewBox="0 0 400 400" style="enable-background:new 0 0 400 400;" xml:space="preserve">
<style type="text/css">
	.st0{fill:#FFFFFF;}
</style>
<path class="st0" d="M206.6,317.2c-8,0-15.6-1.1-22.8-3.2c-6.1-1.9-12-4.7-17.6-8.4l-3.2,7.6h-35.6V62.8l48-6.4V150
	c3.5-1.9,6.9-3.5,10.4-4.8c9.9-3.5,20.4-5.2,31.6-5.2c24.3,0,42.1,7.5,53.6,22.6c11.5,15.1,17.2,35.4,17.2,61
	c0,13.6-1.5,26.1-4.4,37.6c-2.9,11.5-7.7,21.3-14.2,29.6c-6.5,8.3-15,14.7-25.4,19.4C233.8,314.9,221.3,317.2,206.6,317.2z
	 M181.4,281.2c5.9,1.9,11.3,2.8,16.4,2.8c5.9,0,11.3-0.9,16.2-2.8c4.9-1.9,9.2-5,12.8-9.4c3.6-4.4,6.5-10.2,8.6-17.4
	c2.1-7.2,3.2-16.3,3.2-27.2c0-35.7-12.4-53.6-37.2-53.6c-7.7,0-14.7,1.9-20.8,5.6c-1.9,1.1-3.6,2.4-5.2,4v95.2
	C177.5,279.5,179.5,280.4,181.4,281.2z M200,2.5C90.9,2.5,2.5,90.9,2.5,200S90.9,397.5,200,397.5S397.5,309.1,397.5,200
	S309.1,2.5,200,2.5z"/>
</svg>
